<?xml version="1.0" encoding="UTF-8" standalone="no"?>
<svg
   viewBox="0 0 160 160"
   fill="none"
   version="1.1"
   id="svg4"
   sodipodi:docname="icon.svg"
   inkscape:version="1.4.3 (0d15f75042, 2025-12-25)"
   xml:space="preserve"
   xmlns:inkscape="http://www.inkscape.org/namespaces/inkscape"
   xmlns:sodipodi="http://sodipodi.sourceforge.net/DTD/sodipodi-0.dtd"
   xmlns="http://www.w3.org/2000/svg"
   xmlns:svg="http://www.w3.org/2000/svg"><defs
     id="defs4"><linearGradient
       id="pbTop"
       x1="23.796248"
       y1="62.783008"
       x2="85.930894"
       y2="124.91765"
       gradientTransform="matrix(1.2400315,0.08753382,-0.03824616,0.54180708,17.388739,9.4616189)"
       gradientUnits="userSpaceOnUse"><stop
         offset="0%"
         stop-color="#8FE4EA"
         id="stop1" /><stop
         offset="55%"
         stop-color="#0ea5b5"
         id="stop2" /><stop
         offset="100%"
         stop-color="#086370"
         id="stop3" /></linearGradient><linearGradient
       id="pbTeal"
       x1="27.074875"
       y1="121.03715"
       x2="85.930894"
       y2="179.27196"
       gradientTransform="matrix(1.21055,-0.09023533,0.03942653,0.52892569,10.577888,22.499414)"
       gradientUnits="userSpaceOnUse"><stop
         offset="0%"
         stop-color="#4FD1DB"
         id="stop4" /><stop
         offset="100%"
         stop-color="#086370"
         id="stop5" /></linearGradient></defs><sodipodi:namedview
     id="namedview4"
     pagecolor="#ffffff"
     bordercolor="#111111"
     borderopacity="1"
     inkscape:showpageshadow="0"
     inkscape:pageopacity="0"
     inkscape:pagecheckerboard="1"
     inkscape:deskcolor="#d1d1d1"
     inkscape:zoom="5.09375"
     inkscape:cx="43.092025"
     inkscape:cy="99.631902"
     inkscape:window-width="1920"
     inkscape:window-height="1020"
     inkscape:window-x="0"
     inkscape:window-y="0"
     inkscape:window-maximized="1"
     inkscape:current-layer="svg4" /><!-- Favicon can't read CSS variables so the teal is inlined as
       oklch(0.65 0.14 195) expressed in sRGB; mirrors components/brand/logo.tsx. --><path
     d="M 64.41 21 Q 80 12 95.59 21 L 123.30 37 Q 138.89 46 138.89 64 L 138.89 96 Q 138.89 114 123.30 123 L 95.59 139 Q 80 148 64.41 139 L 36.70 123 Q 21.11 114 21.11 96 L 21.11 64 Q 21.11 46 36.70 37 Z"
     stroke="#1a1b2e"
     stroke-width="5"
     id="path1"
     style="fill:none;fill-opacity:0.24984975" /><path
     d="m 46.184096,111.57288 c 12.213169,5.52664 29.124659,2.12037 50.734468,-10.21881 C 111.29861,92.772312 118.82326,85.774394 119.49252,80.360321 107.43841,76.967495 92.461909,77.547436 74.563036,82.100143 56.743694,87.71976 60.633741,97.151369 46.184096,111.57288 Z"
     fill="url(#pbTeal)"
     id="path5"
     style="fill:url(#pbTeal);stroke-width:0.802402"
     sodipodi:nodetypes="ccccc" /><path
     d="M 44.235256,49.249387 C 56.719957,43.540652 74.051942,46.960793 96.231212,59.50981 110.99169,68.24012 118.72549,75.37608 119.43264,80.91769 107.10224,84.44064 91.763168,83.907024 73.415437,79.316842 62.408657,75.596959 45.418126,63.611284 44.235256,49.249387 Z"
     fill="url(#pbTop)"
     id="path6"
     style="fill:url(#pbTop);stroke-width:0.821709"
     sodipodi:nodetypes="ccccc" /></svg>
