<svg xmlns="http://www.w3.org/2000/svg" viewBox="0 0 160 160" fill="none">
  <!-- Favicon can't read CSS variables so the teal is inlined as
       oklch(0.65 0.14 195) expressed in sRGB; mirrors components/brand/logo.tsx. -->
  <path
    d="M 64.41 21 Q 80 12 95.59 21 L 123.30 37 Q 138.89 46 138.89 64 L 138.89 96 Q 138.89 114 123.30 123 L 95.59 139 Q 80 148 64.41 139 L 36.70 123 Q 21.11 114 21.11 96 L 21.11 64 Q 21.11 46 36.70 37 Z"
    stroke="#1a1b2e"
    stroke-width="5"
  />
  <g transform="translate(84 84) scale(0.7)">
    <path
      d="M -28 -38 Q -30 -44 -22 -42 L 22 -6 Q 30 0 22 6 L -22 42 Q -30 44 -28 38 Q -26 34 -20 30 L 14 0 L -20 -30 Q -26 -34 -28 -38 Z"
      fill="#0ea5b5"
    />
  </g>
  <g transform="translate(80 80) scale(0.7)">
    <path
      d="M -24 -36 Q -28 -40 -22 -40 L 18 -6 Q 26 0 18 6 L -14 34"
      stroke="#1a1b2e"
      stroke-width="3.5"
      stroke-linecap="round"
      stroke-linejoin="round"
    />
    <path
      d="M 22 4 L -22 42 Q -28 44 -26 38 L -16 28"
      stroke="#1a1b2e"
      stroke-width="7"
      stroke-linecap="round"
      stroke-linejoin="round"
    />
  </g>
</svg>
